<?xml version="1.0" encoding="UTF-8"?>
<!-- Created with Inkscape (http://www.inkscape.org/) -->
<svg id="svg6530" width="14.31mm" height="13.859mm" version="1.1" viewBox="0 0 50.704 49.108" xmlns="http://www.w3.org/2000/svg" xmlns:cc="http://creativecommons.org/ns#" xmlns:dc="http://purl.org/dc/elements/1.1/" xmlns:rdf="http://www.w3.org/1999/02/22-rdf-syntax-ns#">
 <metadata id="metadata6535">
  <rdf:RDF>
   <cc:Work rdf:about="">
    <dc:format>image/svg+xml</dc:format>
    <dc:type rdf:resource="http://purl.org/dc/dcmitype/StillImage"/>
    <dc:title/>
   </cc:Work>
  </rdf:RDF>
 </metadata>
 <g id="layer1" transform="translate(-233.32 -346.11)">
  <g id="g3546" transform="matrix(.91528 0 0 -.91528 55.332 565.12)">
   <g id="g3548">
    <g id="g3554">
     <g id="g3582">
      <g id="g3584" opacity=".7963">
       <g id="g3588">
        <g id="g3590">
         <g id="g3594">
          <g id="g3596">
           <g id="g3600"></g>
           <g id="g3606">
            <g id="g3608">
             <path id="path3610" d="m201.13 202.19h41.839v26.46h-41.839v-26.46zm46.837 33.14h-17.119v0.9819c0 1.6396-1.2778 2.9684-2.8543 2.9684h-11.653c-1.5743 0-2.8521-1.3288-2.8521-2.9684v-0.9819h-17.121c-1.0554 0-1.8992-0.9139-1.8992-2.0115v-35.769c0-1.0998 0.8438-2.0386 1.8992-2.0386h9.7621l-3.4758-9.885h6.644l3.4757 9.885h4.5224v-5.9256h9.7446v5.9256h4.5224l3.4735-9.885h6.644l-3.4736 9.885h9.76c1.0575 0 1.8992 0.9388 1.8992 2.0386v35.769c0 1.0976-0.8417 2.0115-1.8992 2.0115zm-49.7-3.9594h47.792v-31.9h-47.792v31.9z"/>
            </g>
           </g>
          </g>
         </g>
        </g>
       </g>
      </g>
     </g>
    </g>
   </g>
  </g>
 </g>
</svg>
