<?xml version="1.0" encoding="UTF-8"?>
<!-- Created with Inkscape (http://www.inkscape.org/) -->
<svg id="svg6530" width="14.393mm" height="14.363mm" version="1.1" viewBox="0 0 50.997 50.894" xmlns="http://www.w3.org/2000/svg" xmlns:cc="http://creativecommons.org/ns#" xmlns:dc="http://purl.org/dc/elements/1.1/" xmlns:rdf="http://www.w3.org/1999/02/22-rdf-syntax-ns#">
 <metadata id="metadata6535">
  <rdf:RDF>
   <cc:Work rdf:about="">
    <dc:format>image/svg+xml</dc:format>
    <dc:type rdf:resource="http://purl.org/dc/dcmitype/StillImage"/>
    <dc:title/>
   </cc:Work>
  </rdf:RDF>
 </metadata>
 <g id="layer1" transform="translate(-314.04 -358.12)">
  <g id="g3612" transform="matrix(.91528 0 0 -.91528 135.87 451.04)">
   <g id="g3614">
    <g id="g3620">
     <g id="g3644">
      <g id="g3646" opacity=".7963">
       <g id="g3650">
        <g id="g3652">
         <g id="g3656">
          <g id="g3658">
           <g id="g3662">
            <g id="g3664">
             <path id="path3666" d="m228.28 91.977c2.5762-1.9172 4.3832-5.158 4.7118-8.9235 1.0491-0.5793 2.2172-0.91328 3.4532-0.91328 4.5127 0 8.1719 4.3365 8.1719 9.6873 0 5.3549-3.6592 9.6914-8.1719 9.6914-4.471 0-8.0972-4.2591-8.165-9.5419zm-5.355-19.843c4.5162 0 8.1728 4.3365 8.1728 9.6914 0 5.3508-3.6566 9.6873-8.1728 9.6873-4.5118 0-8.1719-4.3365-8.1719-9.6914 0-5.3508 3.6601-9.6873 8.1719-9.6873zm3.4672-0.66073h-6.9334c-5.7687 0-10.464-5.5683-10.464-12.41v-10.058l0.0235-0.15668 0.5841-0.21749c5.5036-2.0378 10.288-2.7182 14.226-2.7182 7.6904 0 12.145 2.5976 12.423 2.7666l0.5432 0.32572h0.0582v10.058c4e-3 6.8413-4.6926 12.41-10.46 12.41zm13.519 10.002h-6.8786c-0.0747-3.2614-1.249-6.2043-3.1099-8.3184 5.1307-1.808 8.8821-7.4453 8.8821-14.109v-3.0965c6.7934 0.2948 10.708 2.577 10.966 2.7305l0.5432 0.32985h0.0609v10.058c0 6.8413-4.6953 12.405-10.464 12.405zm-31.324 0.66073c1.5993 0 3.0864 0.55559 4.3459 1.4977 0.4006 3.0965 1.8035 5.8064 3.8026 7.6505 7e-3 0.18038 0.0243 0.35768 0.0243 0.54322 0 5.3508-3.6601 9.6914-8.1728 9.6914-4.5119 0-8.1719-4.3406-8.1719-9.6914s3.66-9.6914 8.1719-9.6914zm7.341-8.9791c-1.8504 2.1059-3.0221 5.0292-3.1073 8.2741-0.2546 0.02061-0.5093 0.04432-0.7666 0.04432h-6.9333c-5.7722 0-10.464-5.5642-10.464-12.405v-10.058l0.02-0.15668 0.5841-0.2175c4.4171-1.6348 8.3588-2.3883 11.785-2.6254v3.0356c0 6.664 3.7513 12.301 8.882 14.109z"/>
            </g>
           </g>
          </g>
         </g>
        </g>
       </g>
      </g>
     </g>
    </g>
   </g>
  </g>
 </g>
</svg>
