<?xml version="1.0" encoding="UTF-8"?>
<!-- Created with Inkscape (http://www.inkscape.org/) -->
<svg id="svg6530" width="14.256mm" height="13.354mm" version="1.1" viewBox="0 0 50.513 47.318" xmlns="http://www.w3.org/2000/svg" xmlns:cc="http://creativecommons.org/ns#" xmlns:dc="http://purl.org/dc/elements/1.1/" xmlns:rdf="http://www.w3.org/1999/02/22-rdf-syntax-ns#">
 <metadata id="metadata6535">
  <rdf:RDF>
   <cc:Work rdf:about="">
    <dc:format>image/svg+xml</dc:format>
    <dc:type rdf:resource="http://purl.org/dc/dcmitype/StillImage"/>
    <dc:title/>
   </cc:Work>
  </rdf:RDF>
 </metadata>
 <g id="layer1" transform="translate(-291.89 -314.42)">
  <g id="g3410" transform="matrix(.91528 0 0 -.91528 269.57 535.13)">
   <g id="g3412">
    <g id="g3418">
     <g id="g3446">
      <g id="g3448" opacity=".7963">
       <g id="g3452">
        <g id="g3454">
         <g id="g3458">
          <g id="g3460">
           <g id="g3464"></g>
           <g id="g3472">
            <g id="g3474">
             <path id="path3476" d="m31.559 215.92h1.9049c0-0.0227-0.01512-0.0453-0.01512-0.0652v-6.1143h3.7795v6.1143c0 0.0199-0.01134 0.0425-0.01134 0.0652h1.7991c0-0.0227-0.01512-0.0453-0.01512-0.0652v-6.1143h3.7795v6.1143c0 0.0199-0.01512 0.0425-0.01512 0.0652h1.8028c0-0.0227-0.01511-0.0453-0.01511-0.0652v-6.1143h3.7795v6.1143c0 0.0199-0.01512 0.0425-0.01512 0.0652h1.7877c0-0.0227-0.01512-0.0453-0.01512-0.0652v-6.1143h3.7795v6.1143c0 0.0199-0.01512 0.0425-0.01512 0.0652h1.7991c0-0.0227-0.01134-0.0453-0.01134-0.0652v-6.1143h3.7795v6.1143c0 0.0199-0.01512 0.0425-0.01512 0.0652h1.7839c0-0.0227-0.01512-0.0453-0.01512-0.0652v-6.1143h3.7795v6.1143c0 0.0199-0.01511 0.0425-0.01511 0.0652h1.8028c0-0.0227-0.01512-0.0453-0.01512-0.0652v-6.1143h3.7795v6.1143c0 0.0199-0.01512 0.0425-0.01512 0.0652h1.9049c1.0469 0 1.8898 0.6321 1.8898 1.4173 0 0.7739-0.84284 1.4174-1.8898 1.4174h-40.823c-1.0318 0-1.8898-0.6435-1.8898-1.4174 0-0.7852 0.84284-1.4173 1.8746-1.4173zm46.125-23.641h-1.8898v13.045h1.8898c1.0318 0 1.8898 0.6293 1.8898 1.4173 0 0.7739-0.85796 1.4174-1.8898 1.4174h-51.409c-1.0469 0-1.8898-0.6435-1.8898-1.4174 0-0.788 0.84283-1.4173 1.8898-1.4173h1.8898v-13.045h-1.8898c-1.0469 0-1.8898-0.6407-1.8898-1.4174 0-0.7852 0.84283-1.4173 1.8898-1.4173h51.409c1.0318 0 1.8898 0.6321 1.8898 1.4173 0 0.7767-0.85796 1.4174-1.8898 1.4174zm-10.367 13.045h3.1748v-13.045h-3.1748v13.045zm-16.932 0h3.1748v-13.045h-3.1748v13.045zm-8.4586 0h3.171v-13.045h-3.171v13.045zm16.932 0h3.1748v-13.045h-3.1748v13.045zm-25.41 0h3.1748v-13.045h-3.1748v13.045zm0.38551 15.412h36.291c0.82394 0 1.5042 0.5102 1.5042 1.131 0 0.6293-0.68031 1.1395-1.5042 1.1395h-0.09071c-0.68032 6.2221-6.9543 11.251-15.027 12.268v1.6157h-2.6608v3.9657c0 0.1559-0.16252 0.2863-0.36661 0.2863-0.20788 0-0.38552-0.1304-0.38552-0.2863v-3.9657h-2.6419v-1.6157c-8.092-1.0177-14.351-6.0463-15.043-12.268h-0.0756c-0.84283 0-1.5042-0.5102-1.5042-1.1395 0-0.6208 0.66142-1.131 1.5042-1.131z"/>
            </g>
           </g>
          </g>
         </g>
        </g>
       </g>
      </g>
     </g>
    </g>
   </g>
  </g>
 </g>
</svg>
