<?xml version="1.0" encoding="UTF-8" standalone="no"?>
<!-- Created with Inkscape (http://www.inkscape.org/) -->

<svg
   xmlns:dc="http://purl.org/dc/elements/1.1/"
   xmlns:cc="http://creativecommons.org/ns#"
   xmlns:rdf="http://www.w3.org/1999/02/22-rdf-syntax-ns#"
   xmlns:svg="http://www.w3.org/2000/svg"
   xmlns="http://www.w3.org/2000/svg"
   xmlns:sodipodi="http://sodipodi.sourceforge.net/DTD/sodipodi-0.dtd"
   xmlns:inkscape="http://www.inkscape.org/namespaces/inkscape"
   id="svg3374"
   version="1.1"
   inkscape:version="0.91 r13725"
   xml:space="preserve"
   width="536.41516"
   height="215.68127"
   viewBox="0 0 536.41516 215.68127"
   sodipodi:docname="parties-overview.svg">


<!-- style
     type="text/css"
     id="style3"><![CDATA[
text {
	font-family: Roboto, sans-serif !IMPORTANT;
	font-size: 8px;
}
]]>
</style-->


<metadata
     id="metadata3380"><rdf:RDF><cc:Work
         rdf:about=""><dc:format>image/svg+xml</dc:format><dc:type
           rdf:resource="http://purl.org/dc/dcmitype/StillImage" /><dc:title></dc:title></cc:Work></rdf:RDF></metadata><defs
     id="defs3378" /><sodipodi:namedview
     pagecolor="#ffffff"
     bordercolor="#666666"
     borderopacity="1"
     objecttolerance="10"
     gridtolerance="10"
     guidetolerance="10"
     inkscape:pageopacity="0"
     inkscape:pageshadow="2"
     inkscape:window-width="1920"
     inkscape:window-height="1066"
     id="namedview3376"
     showgrid="false"
     fit-margin-top="0"
     fit-margin-left="0"
     fit-margin-right="0"
     fit-margin-bottom="0"
     inkscape:zoom="2.2228346"
     inkscape:cx="266.77177"
     inkscape:cy="73.309712"
     inkscape:window-x="0"
     inkscape:window-y="14"
     inkscape:window-maximized="0"
     inkscape:current-layer="g3392" /><g
     id="g3382"
     inkscape:groupmode="layer"
     inkscape:label="specification-1.2"
     transform="matrix(1.25,0,0,-1.25,-103.19823,904.43692)"><g
       id="g3384"
       transform="translate(85.025,533.607)"><g
         id="g3386"
         transform="scale(0.73222,0.73222)"><g
           id="g3388"><g
             id="g3390"><g
               id="g3392"><g
                 id="g3398" /><g
                 id="g3400"
                 style="fill:none"><g
                   id="g3402"
                   style="fill:none"><path
                     d="m -89,300 806,0 0,-536 -806,0 0,536 z"
                     style="fill:none;fill-opacity:1;fill-rule:nonzero;stroke:none"
                     id="path3408"
                     inkscape:connector-curvature="0" /></g></g><g
                 id="g3410"><g
                   id="g3412"><g
                     id="g3418"><g
                       id="g3424" /><g
                       id="g3446"><g
                         id="g3448"
                         style="opacity:0.79630001"><g
                           id="g3450" /><g
                           id="g3452"><g
                             id="g3454"><g
                               id="g3456" /><g
                               id="g3458"><g
                                 id="g3460"><g
                                   id="g3462" /><g
                                   id="g3464"><g
                                   id="g3466"><path
                                   d="m 33.83464,220.7405 36.29103,0 c 0.82394,0 1.50425,0.5102 1.50425,1.131 0,0.6293 -0.68031,1.1395 -1.50425,1.1395 l -0.09071,0 c -0.68032,6.2221 -6.95433,11.2507 -15.0274,12.2684 l 0,1.6157 -2.66079,0 0,3.9657 c 0,0.1559 -0.16252,0.2863 -0.36661,0.2863 -0.20788,0 -0.38552,-0.1304 -0.38552,-0.2863 l 0,-3.9657 -2.64188,0 0,-1.6157 C 40.86079,234.2617 34.60189,229.2331 33.91024,223.011 l -0.0756,0 c -0.84283,0 -1.50425,-0.5102 -1.50425,-1.1395 0,-0.6208 0.66142,-1.131 1.50425,-1.131 z"
                                   id="path3468"
                                   inkscape:connector-curvature="0" /><path
                                   d="m 77.68472,192.2835 -1.88976,0 0,13.045 1.88976,0 c 1.03181,0 1.88977,0.6293 1.88977,1.4173 0,0.7739 -0.85796,1.4174 -1.88977,1.4174 l -51.40913,0 c -1.04693,0 -1.88976,-0.6435 -1.88976,-1.4174 0,-0.788 0.84283,-1.4173 1.88976,-1.4173 l 1.88976,0 0,-13.045 -1.88976,0 c -1.04693,0 -1.88976,-0.6407 -1.88976,-1.4174 0,-0.7852 0.84283,-1.4173 1.88976,-1.4173 l 51.40913,0 c 1.03181,0 1.88977,0.6321 1.88977,1.4173 0,0.7767 -0.85796,1.4174 -1.88977,1.4174 z m -10.36724,13.045 3.1748,0 0,-13.045 -3.1748,0 0,13.045 z m -16.93228,0 3.1748,0 0,-13.045 -3.1748,0 0,13.045 z m -8.45859,0 3.17103,0 0,-13.045 -3.17103,0 0,13.045 z m 16.93229,0 3.1748,0 0,-13.045 -3.1748,0 0,13.045 z m -25.40977,0 3.17481,0 0,-13.045 -3.17481,0 0,13.045 z"
                                   id="path3470"
                                   inkscape:connector-curvature="0" /></g></g><g
                                   id="g3472"><g
                                   id="g3474"><path
                                   d="m 31.55937,215.9244 1.90488,0 c 0,-0.0227 -0.01512,-0.0453 -0.01512,-0.0652 l 0,-6.1143 3.77953,0 0,6.1143 c 0,0.0199 -0.01134,0.0425 -0.01134,0.0652 l 1.79906,0 c 0,-0.0227 -0.01512,-0.0453 -0.01512,-0.0652 l 0,-6.1143 3.77953,0 0,6.1143 c 0,0.0199 -0.01512,0.0425 -0.01512,0.0652 l 1.80283,0 c 0,-0.0227 -0.01511,-0.0453 -0.01511,-0.0652 l 0,-6.1143 3.77952,0 0,6.1143 c 0,0.0199 -0.01512,0.0425 -0.01512,0.0652 l 1.78772,0 c 0,-0.0227 -0.01512,-0.0453 -0.01512,-0.0652 l 0,-6.1143 3.77953,0 0,6.1143 c 0,0.0199 -0.01512,0.0425 -0.01512,0.0652 l 1.79906,0 c 0,-0.0227 -0.01134,-0.0453 -0.01134,-0.0652 l 0,-6.1143 3.77953,0 0,6.1143 c 0,0.0199 -0.01512,0.0425 -0.01512,0.0652 l 1.78394,0 c 0,-0.0227 -0.01512,-0.0453 -0.01512,-0.0652 l 0,-6.1143 3.77952,0 0,6.1143 c 0,0.0199 -0.01511,0.0425 -0.01511,0.0652 l 1.80283,0 c 0,-0.0227 -0.01512,-0.0453 -0.01512,-0.0652 l 0,-6.1143 3.77953,0 0,6.1143 c 0,0.0199 -0.01512,0.0425 -0.01512,0.0652 l 1.90488,0 c 1.04693,0 1.88977,0.6321 1.88977,1.4173 0,0.7739 -0.84284,1.4174 -1.88977,1.4174 l -40.82267,0 c -1.03181,0 -1.88977,-0.6435 -1.88977,-1.4174 0,-0.7852 0.84284,-1.4173 1.87465,-1.4173 z"
                                   id="path3476"
                                   inkscape:connector-curvature="0" /></g></g></g></g></g></g></g></g></g></g></g><g
                 id="g3478"><g
                   id="g3480"><g
                     id="g3486"><g
                       id="g3492" /><g
                       id="g3514"><g
                         id="g3516"
                         style="opacity:0.79630001"><g
                           id="g3518" /><g
                           id="g3520"><g
                             id="g3522"><g
                               id="g3524" /><g
                               id="g3526"><g
                                 id="g3528"><g
                                   id="g3530" /><g
                                   id="g3532"><g
                                   id="g3534"><path
                                   d="m 378.4941,56.19023 0,-9.91299 27.9235,0 0,16.53543 -27.9235,0 0,-6.62244 z m 3.4932,3.31122 20.9371,0 0,-3.31122 -20.9371,0 0,3.31122 z m 0,-6.60177 20.9371,0 0,-3.31122 -20.9371,0 0,3.31122 z"
                                   id="path3536"
                                   inkscape:connector-curvature="0" /></g></g><g
                                   id="g3538"><g
                                   id="g3540"><path
                                   d="m 406.4176,85.97055 0,9.91299 -27.9235,0 0,-16.53543 27.9235,0 0,6.62244 z"
                                   id="path3542"
                                   inkscape:connector-curvature="0" /><path
                                   d="m 413.3821,85.97055 -3.4932,0 0,-9.93366 -34.8879,0 0,9.93366 -3.4714,0 c -3.4931,0 -6.9863,-3.31122 -6.9863,-6.62244 l 0,-16.53544 c 0,-3.31122 3.4932,-6.62244 6.9863,-6.62244 l 3.4714,0 0,9.93366 34.8879,0 0,-9.93366 3.4932,0 c 3.4931,0 6.9863,3.31122 6.9863,6.62244 l 0,16.53544 c 0,3.31122 -3.4932,6.62244 -6.9863,6.62244 z"
                                   id="path3544"
                                   inkscape:connector-curvature="0" /></g></g></g></g></g></g></g></g></g></g></g><g
                 id="g3546"><g
                   id="g3548"><g
                     id="g3554"><g
                       id="g3560" /><g
                       id="g3582"><g
                         id="g3584"
                         style="opacity:0.79630001"><g
                           id="g3586" /><g
                           id="g3588"><g
                             id="g3590"><g
                               id="g3592" /><g
                               id="g3594"><g
                                 id="g3596"><g
                                   id="g3598" /><g
                                   id="g3600"><g
                                   id="g3602"><path
                                   d="m 247.9631,235.3299 -17.1191,0 0,0.9819 c 0,1.6396 -1.2778,2.9684 -2.8543,2.9684 l -11.6526,0 c -1.5743,0 -2.8521,-1.3288 -2.8521,-2.9684 l 0,-0.9819 -17.1212,0 c -1.0554,0 -1.8992,-0.9139 -1.8992,-2.0115 l 0,-35.7687 c 0,-1.0998 0.8438,-2.0386 1.8992,-2.0386 l 9.7621,0 -3.4758,-9.885 6.644,0 3.4757,9.885 4.5224,0 0,-5.9256 9.7446,0 0,5.9256 4.5224,0 3.4735,-9.885 6.644,0 -3.4736,9.885 9.76,0 c 1.0575,0 1.8992,0.9388 1.8992,2.0386 l 0,35.7687 c 0,1.0976 -0.8417,2.0115 -1.8992,2.0115 z m -49.7001,-3.9594 47.7921,0 0,-31.9 -47.7921,0 0,31.9 z"
                                   id="path3604"
                                   inkscape:connector-curvature="0" /></g></g><g
                                   id="g3606"><g
                                   id="g3608"><path
                                   d="m 201.126,202.1895 41.83937,0 0,26.45972 -41.83937,0 0,-26.45972 z"
                                   id="path3610"
                                   inkscape:connector-curvature="0" /></g></g></g></g></g></g></g></g></g></g></g><g
                 id="g3612"><g
                   id="g3614"><g
                     id="g3620"><g
                       id="g3626" /><g
                       id="g3644"><g
                         id="g3646"
                         style="opacity:0.79630001"><g
                           id="g3648" /><g
                           id="g3650"><g
                             id="g3652"><g
                               id="g3654" /><g
                               id="g3656"><g
                                 id="g3658"><g
                                   id="g3660" /><g
                                   id="g3662"><g
                                   id="g3664"><path
                                   d="m 228.2844,91.97721 c 2.5762,-1.91725 4.3832,-5.15802 4.7118,-8.92346 1.0491,-0.5793 2.2172,-0.91328 3.4532,-0.91328 4.5127,0 8.1719,4.3365 8.1719,9.68728 0,5.3549 -3.6592,9.69135 -8.1719,9.69135 -4.471,0 -8.0972,-4.25914 -8.165,-9.54189 z m -5.355,-19.84252 c 4.5162,0 8.1728,4.33649 8.1728,9.6914 0,5.35078 -3.6566,9.68727 -8.1728,9.68727 -4.5118,0 -8.1719,-4.33649 -8.1719,-9.6914 0,-5.35078 3.6601,-9.68727 8.1719,-9.68727 z m 3.4672,-0.66073 -6.9334,0 c -5.7687,0 -10.464,-5.56828 -10.464,-12.40956 l 0,-10.05836 0.0235,-0.15668 0.5841,-0.21749 c 5.5036,-2.03785 10.2875,-2.71817 14.2257,-2.71817 7.6904,0 12.1449,2.59757 12.4231,2.76662 l 0.5432,0.32572 0.0582,0 0,10.05836 c 0.004,6.84128 -4.6926,12.40956 -10.4604,12.40956 z m 13.519,10.00166 -6.8786,0 c -0.0747,-3.26139 -1.249,-6.20427 -3.1099,-8.3184 5.1307,-1.80798 8.8821,-7.44532 8.8821,-14.10932 l 0,-3.09646 c 6.7934,0.2948 10.7082,2.57695 10.9663,2.73054 l 0.5432,0.32985 0.0609,0 0,10.05835 c 0,6.84129 -4.6953,12.40544 -10.464,12.40544 z m -31.324,0.66073 c 1.5993,0 3.0864,0.55559 4.3459,1.49772 0.4006,3.09647 1.8035,5.80639 3.8026,7.65046 0.007,0.18038 0.0243,0.35768 0.0243,0.54322 0,5.35078 -3.6601,9.69135 -8.1728,9.69135 -4.5119,0 -8.1719,-4.34057 -8.1719,-9.69135 0,-5.35078 3.66,-9.6914 8.1719,-9.6914 z m 7.341,-8.97913 c -1.8504,2.10589 -3.0221,5.02918 -3.1073,8.27408 -0.2546,0.02061 -0.5093,0.04432 -0.7666,0.04432 l -6.9333,0 c -5.7722,0 -10.464,-5.56415 -10.464,-12.40544 l 0,-10.05835 0.02,-0.15668 0.5841,-0.2175 c 4.4171,-1.63481 8.3588,-2.38831 11.7851,-2.62539 l 0,3.03564 c 0,6.664 3.7513,12.30134 8.882,14.10932 z"
                                   id="path3666"
                                   inkscape:connector-curvature="0" /></g></g></g></g></g></g></g></g></g></g></g><g
                 id="g3668"><g
                   id="g3670"><g
                     id="g3676"><g
                       id="g3682" /><g
                       id="g3700"><g
                         id="g3702"
                         style="opacity:0.79630001"><g
                           id="g3704" /><g
                           id="g3706"><g
                             id="g3708"><g
                               id="g3710" /><g
                               id="g3712"><g
                                 id="g3714"><g
                                   id="g3716" /><g
                                   id="g3718"><g
                                   id="g3720"><path
                                   d="m 552.3354,73.43327 c 6.214,0 11.2529,5.81856 11.2529,12.99679 0,7.17766 -1.6546,12.99679 -11.2529,12.99679 -9.5991,0 -11.253,-5.81913 -11.253,-12.99679 0,-7.17823 5.0383,-12.99679 11.253,-12.99679 z"
                                   id="path3722"
                                   inkscape:connector-curvature="0" /><path
                                   d="m 573.5649,54.1132 c -0.2082,12.50439 -1.926,16.06732 -15.0676,18.32295 0,0 -1.8505,-2.24159 -6.1619,-2.24159 -4.3121,0 -6.1626,2.24159 -6.1626,2.24159 -12.998,-2.23115 -14.8204,-5.74149 -15.0597,-17.91655 -0.0196,-0.99427 -0.029,-1.04628 -0.032,-0.93049 8e-4,-0.21659 0.002,-0.61692 0.002,-1.31394 0,0 3.1283,-5.99793 21.2527,-5.99793 18.1236,0 21.252,5.99793 21.252,5.99793 0,0.44779 8e-4,0.75928 8e-4,0.97131 -0.003,-0.07118 -0.0101,0.06739 -0.0233,0.86672 z"
                                   id="path3724"
                                   inkscape:connector-curvature="0" /></g></g></g></g></g></g></g></g></g></g></g><g
                 id="g3726"><g
                   id="g3728"><g
                     id="g3734"><g
                       id="g3740" /><g
                       id="g3758"><g
                         id="g3760"
                         style="opacity:0.79630001"><g
                           id="g3762" /><g
                           id="g3764"><g
                             id="g3766"><g
                               id="g3768" /><g
                               id="g3770"><g
                                 id="g3772"><g
                                   id="g3774" /><g
                                   id="g3776"><g
                                   id="g3778"><path
                                   d="m 530.1927,201.7259 44.2403,0 c 1.7509,0 3.1616,1.361 3.1616,3.0464 l 0,30.4862 c 0,2.2463 -1.884,4.0652 -4.2124,4.0652 l -42.1334,0 c -2.3283,0 -4.2124,-1.8189 -4.2124,-4.0652 l 0,-30.4862 c 0,-1.6854 1.416,-3.0464 3.1563,-3.0464 z m 2.1175,32.51 40.0107,0 0,-27.4222 -40.0107,0 0,27.4222 z"
                                   id="path3780"
                                   inkscape:connector-curvature="0" /><path
                                   d="m 579.5828,199.8574 -54.5346,0 c -0.5828,0 -1.0561,-0.4566 -1.0561,-1.0188 l 0,-3.765 c 0,-2.0122 2.1161,-3.6429 4.7332,-3.6429 l 47.1804,0 c 2.6158,0 4.7332,1.6307 4.7332,3.6429 l 0,3.765 c 0,0.5622 -0.4746,1.0188 -1.0561,1.0188 z m -20.6876,-5.2315 -13.1594,0 c -0.5814,0 -1.056,0.4515 -1.056,1.0188 0,0.5609 0.4746,1.0138 1.056,1.0138 l 13.1594,0 c 0.5814,0 1.0547,-0.4529 1.0547,-1.0138 0,-0.5673 -0.4733,-1.0188 -1.0547,-1.0188 z"
                                   id="path3782"
                                   inkscape:connector-curvature="0" /></g></g></g></g></g></g></g></g></g></g></g><g
                 id="g3784"><g
                   id="g3786"><g
                     id="g3792"
                     transform="matrix(1,0,0,-1,-89,300)"><path
                       d="m 179.9787,85.03937 90.0426,0"
                       style="fill:none;stroke:#000000;stroke-width:1;stroke-linecap:round;stroke-linejoin:round;stroke-miterlimit:10;stroke-dasharray:none;stroke-opacity:1"
                       id="path3794"
                       inkscape:connector-curvature="0" /></g><path
                     d="m 189.0213,214.9606 -8,3 0,-6 8,3 z"
                     id="path3796"
                     inkscape:connector-curvature="0" /><g
                     id="g3798"
                     transform="matrix(1,0,0,-1,-89,300)"><path
                       d="m 278.0213,85.03937 -8,-3 0,6 8,-3 z"
                       style="fill:none;stroke:#000000;stroke-width:1;stroke-linecap:butt;stroke-linejoin:miter;stroke-miterlimit:10;stroke-dasharray:none;stroke-opacity:1"
                       id="path3800"
                       inkscape:connector-curvature="0" /></g><path
                     d="m 82.97874,214.9606 8,-3 0,6 -8,-3 z"
                     id="path3802"
                     inkscape:connector-curvature="0" /><g
                     id="g3804"
                     transform="matrix(1,0,0,-1,-89,300)"><path
                       d="m 171.9787,85.03937 8,3 0,-6 -8,3 z"
                       style="fill:none;stroke:#000000;stroke-width:1;stroke-linecap:butt;stroke-linejoin:miter;stroke-miterlimit:10;stroke-dasharray:none;stroke-opacity:1"
                       id="path3806"
                       inkscape:connector-curvature="0" /></g><g
                     id="g3808"
                     transform="matrix(1,0,0,-1,-89,300)"><path
                       d="m 311.811,186.5549 0,-60.9435"
                       style="fill:none;stroke:#000000;stroke-width:1;stroke-linecap:round;stroke-linejoin:round;stroke-miterlimit:10;stroke-dasharray:none;stroke-opacity:1"
                       id="path3810"
                       inkscape:connector-curvature="0" /></g><path
                     d="m 222.811,182.3886 -3,-8 6,0 -3,8 z"
                     id="path3812"
                     inkscape:connector-curvature="0" /><g
                     id="g3814"
                     transform="matrix(1,0,0,-1,-89,300)"><path
                       d="m 311.811,117.6114 -3,8 6,0 -3,-8 z"
                       style="fill:none;stroke:#000000;stroke-width:1;stroke-linecap:butt;stroke-linejoin:miter;stroke-miterlimit:10;stroke-dasharray:none;stroke-opacity:1"
                       id="path3816"
                       inkscape:connector-curvature="0" /></g><path
                     d="m 222.811,105.4451 3,8 -6,0 3,-8 z"
                     id="path3818"
                     inkscape:connector-curvature="0" /><g
                     id="g3820"
                     transform="matrix(1,0,0,-1,-89,300)"><path
                       d="m 311.811,194.5549 3,-8 -6,0 3,8 z"
                       style="fill:none;stroke:#000000;stroke-width:1;stroke-linecap:butt;stroke-linejoin:miter;stroke-miterlimit:10;stroke-dasharray:none;stroke-opacity:1"
                       id="path3822"
                       inkscape:connector-curvature="0" /></g><g
                     id="g3824"
                     transform="matrix(1,0,0,-1,-89,300)"><path
                       d="m 641.3262,126.8291 0.0106,60.0133"
                       style="fill:none;stroke:#000000;stroke-width:1;stroke-linecap:round;stroke-linejoin:round;stroke-miterlimit:10;stroke-dasharray:none;stroke-opacity:1"
                       id="path3826"
                       inkscape:connector-curvature="0" /></g><path
                     d="m 552.3382,105.1576 2.9986,8.0006 -6,-10e-4 3.0014,-7.9995 z"
                     id="path3828"
                     inkscape:connector-curvature="0" /><g
                     id="g3830"
                     transform="matrix(1,0,0,-1,-89,300)"><path
                       d="m 641.3382,194.8424 2.9986,-8.0006 -6,0.001 3.0014,7.9995 z"
                       style="fill:none;stroke:#000000;stroke-width:1;stroke-linecap:butt;stroke-linejoin:miter;stroke-miterlimit:10;stroke-dasharray:none;stroke-opacity:1"
                       id="path3832"
                       inkscape:connector-curvature="0" /></g><path
                     d="m 552.3248,181.1709 -2.9986,-8.0006 6,0.001 -3.0014,7.9995 z"
                     id="path3834"
                     inkscape:connector-curvature="0" /><g
                     id="g3836"
                     transform="matrix(1,0,0,-1,-89,300)"><path
                       d="m 641.3248,118.8291 -2.9986,8.0006 6,-0.001 -3.0014,-7.9995 z"
                       style="fill:none;stroke:#000000;stroke-width:1;stroke-linecap:butt;stroke-linejoin:miter;stroke-miterlimit:10;stroke-dasharray:none;stroke-opacity:1"
                       id="path3838"
                       inkscape:connector-curvature="0" /></g><g
                     id="g3840"
                     transform="matrix(1,0,0,-1,-89,300)"><path
                       d="m 353.6008,85.03937 245.948,0"
                       style="fill:none;stroke:#000000;stroke-width:1;stroke-linecap:round;stroke-linejoin:round;stroke-miterlimit:10;stroke-dasharray:none;stroke-opacity:1"
                       id="path3842"
                       inkscape:connector-curvature="0" /></g><path
                     d="m 518.5488,214.9606 -8,3 0,-6 8,3 z"
                     id="path3844"
                     inkscape:connector-curvature="0" /><g
                     id="g3846"
                     transform="matrix(1,0,0,-1,-89,300)"><path
                       d="m 607.5488,85.03937 -8,-3 0,6 8,-3 z"
                       style="fill:none;stroke:#000000;stroke-width:1;stroke-linecap:butt;stroke-linejoin:miter;stroke-miterlimit:10;stroke-dasharray:none;stroke-opacity:1"
                       id="path3848"
                       inkscape:connector-curvature="0" /></g><path
                     d="m 256.6008,214.9606 8,-3 0,6 -8,-3 z"
                     id="path3850"
                     inkscape:connector-curvature="0" /><g
                     id="g3852"
                     transform="matrix(1,0,0,-1,-89,300)"><path
                       d="m 345.6008,85.03937 8,3 0,-6 -8,3 z"
                       style="fill:none;stroke:#000000;stroke-width:1;stroke-linecap:butt;stroke-linejoin:miter;stroke-miterlimit:10;stroke-dasharray:none;stroke-opacity:1"
                       id="path3854"
                       inkscape:connector-curvature="0" /></g><g
                     id="g3856"
                     transform="matrix(1,0,0,-1,-89,300)"><path
                       d="m 343.7008,226.7717 95.7299,0"
                       style="fill:none;stroke:#000000;stroke-width:1;stroke-linecap:round;stroke-linejoin:round;stroke-miterlimit:10;stroke-dasharray:none;stroke-opacity:1"
                       id="path3858"
                       inkscape:connector-curvature="0" /></g><path
                     d="m 358.4307,73.22835 -8,3 0,-6 8,3 z"
                     id="path3860"
                     inkscape:connector-curvature="0" /><g
                     id="g3862"
                     transform="matrix(1,0,0,-1,-89,300)"><path
                       d="m 447.4307,226.7717 -8,-3 0,6 8,-3 z"
                       style="fill:none;stroke:#000000;stroke-width:1;stroke-linecap:butt;stroke-linejoin:miter;stroke-miterlimit:10;stroke-dasharray:none;stroke-opacity:1"
                       id="path3864"
                       inkscape:connector-curvature="0" /></g><g
                     id="g3866"
                     transform="matrix(1,0,0,-1,-89,300)"><path
                       d="m 340.1575,111.8581 109.3159,90.8686"
                       style="fill:none;stroke:#000000;stroke-width:1;stroke-linecap:round;stroke-linejoin:round;stroke-miterlimit:10;stroke-dasharray:none;stroke-opacity:1"
                       id="path3868"
                       inkscape:connector-curvature="0" /></g><path
                     d="m 366.6255,92.15943 -4.2344,7.42093 -3.8354,-4.61406 8.0698,-2.80687 z"
                     id="path3870"
                     inkscape:connector-curvature="0" /><g
                     id="g3872"
                     transform="matrix(1,0,0,-1,-89,300)"><path
                       d="m 455.6255,207.8406 -4.2344,-7.421 -3.8354,4.6141 8.0698,2.8069 z"
                       style="fill:none;stroke:#000000;stroke-width:1;stroke-linecap:butt;stroke-linejoin:miter;stroke-miterlimit:10;stroke-dasharray:none;stroke-opacity:1"
                       id="path3874"
                       inkscape:connector-curvature="0" /></g><g
                     id="g3876"
                     transform="matrix(1,0,0,-1,-89,300)"><path
                       d="m 514.4488,226.7717 95.7299,0"
                       style="fill:none;stroke:#000000;stroke-width:1;stroke-linecap:round;stroke-linejoin:round;stroke-miterlimit:10;stroke-dasharray:none;stroke-opacity:1"
                       id="path3878"
                       inkscape:connector-curvature="0" /></g><path
                     d="m 529.1787,73.22835 -8,3 0,-6 8,3 z"
                     id="path3880"
                     inkscape:connector-curvature="0" /><g
                     id="g3882"
                     transform="matrix(1,0,0,-1,-89,300)"><path
                       d="m 618.1787,226.7717 -8,-3 0,6 8,-3 z"
                       style="fill:none;stroke:#000000;stroke-width:1;stroke-linecap:butt;stroke-linejoin:miter;stroke-miterlimit:10;stroke-dasharray:none;stroke-opacity:1"
                       id="path3884"
                       inkscape:connector-curvature="0" /></g></g></g><g
                 id="g3886"
                 transform="translate(2.9491204,-3.9321605)"><g
                   id="g3888"><g
                     id="g3894"><g
                       id="g3900"
                       transform="matrix(1.4,0,0,1.4,327.14,-891.1972)"><text
                         transform="matrix(1,0,0,-1,148.712,657.235)"
                         id="text3902"><tspan
                           style="font-style:normal;font-variant:normal;font-weight:300;font-stretch:normal;font-size:8.77956295px;font-family:Roboto;-inkscape-font-specification:'Roboto Light'"
                           id="tspan3649">Voter</tspan></text>
</g></g></g></g><g
                 id="g3906"
                 transform="translate(22.118403,3.4406405)"><g
                   id="g3908"
                   transform="translate(-40.304645,-3.9321605)"><g
                     id="g3914"><g
                       id="g3920"
                       transform="matrix(1.4,0,0,1.4,-214.97112,-892.75556)"><text
                         transform="matrix(1,0,0,-1,287.843,657.235)"
                         id="text3922"><tspan
                           style="font-style:normal;font-variant:normal;font-weight:300;font-stretch:normal;font-size:8.77956295px;font-family:Roboto;-inkscape-font-specification:'Roboto Light'"
                           id="tspan3645">Election Authorities</tspan></text>
</g></g></g></g><g
                 id="g3932"
                 transform="translate(51.118087,-12.288002)"><g
                   id="g3934"
                   transform="translate(-68.812809,0)"><g
                     id="g3940"><g
                       id="g3946"
                       transform="matrix(1.4,0,0,1.4,124.9414,-657.7972)"><text
                         transform="matrix(1,0,0,-1,291.233,657.235)"
                         id="text3948"><tspan
                           style="font-style:normal;font-variant:normal;font-weight:300;font-stretch:normal;font-size:8.77956295px;font-family:Roboto;-inkscape-font-specification:'Roboto Light'"
                           id="tspan3643">Voting Client</tspan></text>
</g></g></g></g><g
                 id="g3958"
                 transform="translate(22.609923,0.49152004)"><g
                   id="g3960"><g
                     id="g3966"><g
                       id="g3972"
                       transform="matrix(1.4,0,0,1.4,-79.495406,-894.23784)"><text
                         transform="matrix(1,0,0,-1,287.691,657.235)"
                         id="text3974"><tspan
                           style="font-style:normal;font-variant:normal;font-weight:300;font-stretch:normal;font-size:8.77956295px;font-family:Roboto;-inkscape-font-specification:'Roboto Light'"
                           id="tspan3647">Printing Authority</tspan></text>
</g><g
                       id="g3978"
                       transform="matrix(1.4,0,0,1.4,-35.2586,-890.7972)" /></g></g></g><g
                 id="g3984"
                 transform="translate(-12.288002,-12.779522)"><g
                   id="g3986"><g
                     id="g3992"><g
                       id="g3998"
                       transform="matrix(1.4,0,0,1.4,-205.5476,-657.8305)"><text
                         transform="matrix(1,0,0,-1,288.258,657.235)"
                         id="text4000"><tspan
                           style="font-style:normal;font-variant:normal;font-weight:300;font-stretch:normal;font-size:8.77956295px;font-family:Roboto;-inkscape-font-specification:'Roboto Light'"
                           id="tspan3641">Bulletin Board</tspan></text>
</g></g></g></g><g
                 id="g4010"><g
                   id="g4012"><path
                     d="m 470.2399,97.59046 16.0478,0 0,-20.95276 -16.0478,0 0,20.95276 z"
                     style="fill:transparent;fill-opacity:1;fill-rule:nonzero;stroke:none"
                     id="path4018"
                     inkscape:connector-curvature="0" /></g></g><g
                 id="g4020"><g
                   id="g4022"><g
                     id="g4028"><g
                       id="g4034" /><g
                       id="g4052"><g
                         id="g4054"
                         style="opacity:0.8"><g
                           id="g4056" /><g
                           id="g4058"><g
                             id="g4060"><g
                               id="g4062" /><g
                               id="g4064"><g
                                 id="g4066"><g
                                   id="g4068" /><g
                                   id="g4070"><g
                                   id="g4072"><path
                                   d="m 472.0399,91.29493 0,-2.17941 -0.1452,0 c -0.9126,0 -1.6548,-0.74203 -1.6548,-1.65489 l 0,-9.11472 c 0,-0.91285 0.7422,-1.65489 1.6548,-1.65489 l 12.719,0 c 0.9126,0 1.6548,0.74204 1.6548,1.65489 l 0,9.11893 c 0,0.91281 -0.7422,1.65506 -1.6548,1.65506 l -0.0427,0 0,2.1794 c 0,3.45486 -2.8109,6.26557 -6.2656,6.26557 -3.4548,-0.0042 -6.2655,-2.81508 -6.2655,-6.26994 z m 7.1952,-8.79467 c -0.1279,-0.09388 -0.162,-0.18345 -0.162,-0.33279 0.004,-0.66953 0.004,-1.33495 0.004,-2.00448 0.0127,-0.27745 -0.1281,-0.55026 -0.3755,-0.67395 -0.5842,-0.29867 -1.1686,0.11932 -1.1686,0.67395 l 0,0.0042 c 0,0.66953 0,1.33932 0.004,2.00885 0,0.13665 -0.0298,0.22622 -0.1494,0.31573 -0.6056,0.4478 -0.8059,1.21127 -0.5031,1.88085 0.2943,0.65268 1.0151,1.03649 1.6931,0.90006 0.755,-0.15365 1.2796,-0.75931 1.2882,-1.51425 0,-0.52462 -0.2089,-0.95114 -0.6313,-1.25813 z m -4.4528,8.79467 c 0,1.94498 1.5823,3.52316 3.5231,3.52316 1.945,0 3.523,-1.58234 3.523,-3.52316 l 0,-2.17941 -7.0461,0 0,2.17941 z"
                                   id="path4074"
                                   inkscape:connector-curvature="0" /></g></g></g></g></g></g></g></g></g></g></g><g
                 id="g4076"><g
                   id="g4078"><path
                     d="m 293.6772,97.72441 16.0477,0 0,-20.95276 -16.0477,0 0,20.95276 z"
                     style="fill:transparent;fill-opacity:1;fill-rule:nonzero;stroke:none"
                     id="path4084"
                     inkscape:connector-curvature="0" /></g></g><g
                 id="g4086"><g
                   id="g4088"><g
                     id="g4094"><g
                       id="g4100" /><g
                       id="g4118"><g
                         id="g4120"
                         style="opacity:0.8"><g
                           id="g4122" /><g
                           id="g4124"><g
                             id="g4126"><g
                               id="g4128" /><g
                               id="g4130"><g
                                 id="g4132"><g
                                   id="g4134" /><g
                                   id="g4136"><g
                                   id="g4138"><path
                                   d="m 295.4772,91.42888 0,-2.1794 -0.1452,0 c -0.9126,0 -1.6548,-0.74204 -1.6548,-1.6549 l 0,-9.11472 c 0,-0.91285 0.7422,-1.65489 1.6548,-1.65489 l 12.719,0 c 0.9126,0 1.6548,0.74204 1.6548,1.65489 l 0,9.11893 c 0,0.91281 -0.7422,1.65506 -1.6548,1.65506 l -0.0427,0 0,2.1794 c 0,3.45486 -2.811,6.26557 -6.2656,6.26557 -3.4549,-0.0042 -6.2655,-2.81508 -6.2655,-6.26994 z m 7.1952,-8.79466 c -0.1279,-0.09389 -0.162,-0.18346 -0.162,-0.3328 0.004,-0.66953 0.004,-1.33495 0.004,-2.00448 0.0127,-0.27745 -0.1281,-0.55026 -0.3754,-0.67395 -0.5842,-0.29867 -1.1686,0.11932 -1.1686,0.67395 l 0,0.0042 c 0,0.66953 0,1.33933 0.004,2.00885 0,0.13665 -0.0298,0.22622 -0.1494,0.31573 -0.6056,0.4478 -0.8059,1.21127 -0.5031,1.88085 0.2942,0.65268 1.015,1.03649 1.6931,0.90006 0.755,-0.15365 1.2796,-0.75931 1.2881,-1.51425 0,-0.52462 -0.2088,-0.95114 -0.6312,-1.25812 z m -4.4529,8.79466 c 0,1.94498 1.5824,3.52316 3.5232,3.52316 1.945,0 3.5229,-1.58234 3.5229,-3.52316 l 0,-2.1794 -7.0461,0 0,2.1794 z"
                                   id="path4140"
                                   inkscape:connector-curvature="0" /></g></g></g></g></g></g></g></g></g></g></g><g
                 id="g4142"
                 transform="translate(1.4745602,-2.4576003)"><g
                   id="g4144"><g
                     id="g4150"><g
                       id="g4156"
                       transform="matrix(1.4,0,0,1.4,-408.96948,-668.31912)"><text
                         transform="matrix(1,0,0,-1,287.843,657.235)"
                         id="text4158"
                         style="font-style:normal;font-variant:normal;font-weight:300;font-stretch:normal;font-family:Roboto;-inkscape-font-specification:'Roboto Light'"><tspan
                           style="font-style:normal;font-variant:normal;font-weight:300;font-stretch:normal;font-size:8.77956295px;font-family:Roboto;-inkscape-font-specification:'Roboto Light'"
                           id="tspan3639">Election Administrator</tspan></text>
</g></g></g></g><g
                 id="g4168"><g
                   id="g4170"><g
                     id="g4176"><g
                       id="g4182"><g
                         id="g4188" /><g
                         id="g4218"><g
                           id="g4220"
                           style="opacity:0.8"><g
                             id="g4222" /><g
                             id="g4224"><g
                               id="g4226"><g
                                 id="g4228"><g
                                   id="g4230" /><g
                                   id="g4232"><g
                                   id="g4234"><g
                                   id="g4236" /><g
                                   id="g4238"><g
                                   id="g4240"><g
                                   id="g4242"><g
                                   id="g4244"><path
                                   d="m 57.35572,177.3919 0.04119,2.1854 -7.52149,-0.1407 c -0.66942,-2.1149 -2.62403,-3.6903 -4.93228,-3.7355 -2.81532,-0.051 -5.05642,2.1901 -5.00344,5.0035 0.05289,2.8172 2.37975,5.1441 5.197,5.197 2.30616,0.0431 4.20384,-1.4631 4.79294,-3.5518 l 14.80909,0.2765 c 0.80148,0.0157 1.44522,-0.628 1.42952,-1.4295 -0.01503,-0.8008 -0.6834,-1.4692 -1.48423,-1.4842 L 64.643,177.5273 c -0.0076,-0.4024 -0.33976,-0.7346 -0.74222,-0.7422 l -1.45685,-0.0275 c -0.40295,-0.008 -0.72291,0.3119 -0.71486,0.7149 l 0.04119,2.1853 -1.4591,-0.0253 -0.03966,-2.1879 c -0.0076,-0.4024 -0.33955,-0.7344 -0.74202,-0.742 L 58.0726,176.675 c -0.40448,-0.006 -0.72242,0.3124 -0.71688,0.7169 z m -12.27388,5.5957 c -1.2074,-0.0226 -2.20571,-1.0209 -2.22838,-2.2283 -0.02256,-1.2037 0.94094,-2.1672 2.14439,-2.1444 1.20554,0.0245 2.20385,1.0228 2.22838,2.2283 0.02275,1.2035 -0.94074,2.167 -2.14439,2.1444 z"
                                   id="path4246"
                                   inkscape:connector-curvature="0" /></g></g></g></g></g></g></g></g></g></g></g></g></g></g></g><g
                 id="g4248"><g
                   id="g4250"><g
                     id="g4256"><g
                       id="g4262"><g
                         id="g4268" /><g
                         id="g4298"><g
                           id="g4300"
                           style="opacity:0.8"><g
                             id="g4302" /><g
                             id="g4304"><g
                               id="g4306"><g
                                 id="g4308"><g
                                   id="g4310" /><g
                                   id="g4312"><g
                                   id="g4314"><g
                                   id="g4316" /><g
                                   id="g4318"><g
                                   id="g4320"><g
                                   id="g4322"><g
                                   id="g4324"><path
                                   d="m 194.7553,44.80752 0.0412,2.18539 -7.5215,-0.14073 c -0.6694,-2.11486 -2.624,-3.69028 -4.9323,-3.73547 -2.8153,-0.05097 -5.0564,2.19014 -5.0034,5.00345 0.0529,2.81725 2.3798,5.14411 5.197,5.19701 2.3062,0.04309 4.2038,-1.4631 4.7929,-3.55172 l 14.8091,0.27646 c 0.8015,0.01569 1.4452,-0.62805 1.4296,-1.42952 -0.0151,-0.80083 -0.6835,-1.4692 -1.4843,-1.48424 l -0.041,-2.18522 c -0.008,-0.40246 -0.3398,-0.73466 -0.7422,-0.74222 l -1.4569,-0.02751 c -0.4029,-0.0081 -0.7229,0.31191 -0.7148,0.71486 l 0.0412,2.18539 -1.4591,-0.02534 -0.0397,-2.18789 c -0.008,-0.40247 -0.3396,-0.73446 -0.742,-0.74202 l -1.4569,-0.02755 c -0.4045,-0.0055 -0.7224,0.3124 -0.7169,0.71687 z m -12.2739,5.59572 c -1.2074,-0.02267 -2.2057,-1.02098 -2.2283,-2.22838 -0.0226,-1.20365 0.9409,-2.16714 2.1443,-2.14439 1.2056,0.02453 2.2039,1.02284 2.2284,2.22838 0.0228,1.20345 -0.9407,2.16695 -2.1444,2.14439 z"
                                   id="path4326"
                                   inkscape:connector-curvature="0" /></g></g></g></g></g></g></g></g></g></g></g></g></g></g></g><g
                 id="g4328"><g
                   id="g4330"><path
                     d="m 555.8819,154.7244 16.0478,0 0,-20.9527 -16.0478,0 0,20.9527 z"
                     style="fill:transparent;fill-opacity:1;fill-rule:nonzero;stroke:none"
                     id="path4336"
                     inkscape:connector-curvature="0" /></g></g><g
                 id="g4338"><g
                   id="g4340"><g
                     id="g4346"><g
                       id="g4352" /><g
                       id="g4370"><g
                         id="g4372"
                         style="opacity:0.8"><g
                           id="g4374" /><g
                           id="g4376"><g
                             id="g4378"><g
                               id="g4380" /><g
                               id="g4382"><g
                                 id="g4384"><g
                                   id="g4386" /><g
                                   id="g4388"><g
                                   id="g4390"><path
                                   d="m 557.6819,148.4289 0,-2.1794 -0.1452,0 c -0.9126,0 -1.6548,-0.7421 -1.6548,-1.6549 l 0,-9.1147 c 0,-0.9129 0.7422,-1.6549 1.6548,-1.6549 l 12.719,0 c 0.9126,0 1.6548,0.742 1.6548,1.6549 l 0,9.1189 c 0,0.9128 -0.7422,1.655 -1.6548,1.655 l -0.0427,0 0,2.1795 c 0,3.4548 -2.8109,6.2655 -6.2656,6.2655 -3.4548,-0.004 -6.2655,-2.8151 -6.2655,-6.2699 z m 7.1952,-8.7947 c -0.1279,-0.0939 -0.162,-0.1834 -0.162,-0.3328 0.004,-0.6695 0.004,-1.3349 0.004,-2.0045 0.0127,-0.2774 -0.1281,-0.5502 -0.3755,-0.6739 -0.5842,-0.2987 -1.1686,0.1193 -1.1686,0.6739 l 0,0.004 c 0,0.6695 0,1.3393 0.004,2.0089 0,0.1366 -0.0298,0.2262 -0.1494,0.3157 -0.6056,0.4478 -0.8059,1.2112 -0.5031,1.8808 0.2943,0.6527 1.0151,1.0365 1.6931,0.9001 0.755,-0.1537 1.2796,-0.7593 1.2882,-1.5143 0,-0.5246 -0.2089,-0.9511 -0.6313,-1.2581 z m -4.4528,8.7947 c 0,1.945 1.5823,3.5231 3.5231,3.5231 1.945,0 3.523,-1.5823 3.523,-3.5231 l 0,-2.1794 -7.0461,0 0,2.1794 z"
                                   id="path4392"
                                   inkscape:connector-curvature="0" /></g></g></g></g></g></g></g></g></g></g></g></g></g></g></g></g></g></svg>
