<?xml version="1.0" encoding="UTF-8"?>
<!-- Created with Inkscape (http://www.inkscape.org/) -->
<svg id="svg6530" width="14.42mm" height="12.814mm" version="1.1" viewBox="0 0 51.095 45.403" xmlns="http://www.w3.org/2000/svg" xmlns:cc="http://creativecommons.org/ns#" xmlns:dc="http://purl.org/dc/elements/1.1/" xmlns:rdf="http://www.w3.org/1999/02/22-rdf-syntax-ns#">
 <metadata id="metadata6535">
  <rdf:RDF>
   <cc:Work rdf:about="">
    <dc:format>image/svg+xml</dc:format>
    <dc:type rdf:resource="http://purl.org/dc/dcmitype/StillImage"/>
    <dc:title/>
   </cc:Work>
  </rdf:RDF>
 </metadata>
 <g id="layer1" transform="translate(-330.64 -363.81)">
  <g id="g3478" transform="matrix(.91528 0 0 -.91528 -3.0216 451.57)">
   <g id="g3480">
    <g id="g3486">
     <g id="g3514">
      <g id="g3516" opacity=".7963">
       <g id="g3520">
        <g id="g3522">
         <g id="g3526">
          <g id="g3528">
           <g id="g3532"></g>
           <g id="g3538">
            <g id="g3540">
             <path id="path3544" d="m413.38 85.971h-3.4932v-9.9337h-34.888v9.9337h-3.4714c-3.4931 0-6.9863-3.3112-6.9863-6.6224v-16.535c0-3.3112 3.4932-6.6224 6.9863-6.6224h3.4714v9.9337h34.888v-9.9337h3.4932c3.4931 0 6.9863 3.3112 6.9863 6.6224v16.535c0 3.3112-3.4932 6.6224-6.9863 6.6224zm-6.9645 0v9.913h-27.924v-16.535h27.924v6.6224zm-27.924-29.78v-9.913h27.924v16.535h-27.924v-6.6224zm3.4932 3.3112h20.937v-3.3112h-20.937v3.3112zm0-6.6018h20.937v-3.3112h-20.937v3.3112z"/>
            </g>
           </g>
          </g>
         </g>
        </g>
       </g>
      </g>
     </g>
    </g>
   </g>
  </g>
 </g>
</svg>
