<?xml version="1.0" encoding="UTF-8"?>
<!-- Created with Inkscape (http://www.inkscape.org/) -->
<svg id="svg6530" width="10.98mm" height="13.729mm" version="1.1" viewBox="0 0 38.906 48.647" xmlns="http://www.w3.org/2000/svg" xmlns:cc="http://creativecommons.org/ns#" xmlns:dc="http://purl.org/dc/elements/1.1/" xmlns:rdf="http://www.w3.org/1999/02/22-rdf-syntax-ns#">
 <metadata id="metadata6535">
  <rdf:RDF>
   <cc:Work rdf:about="">
    <dc:format>image/svg+xml</dc:format>
    <dc:type rdf:resource="http://purl.org/dc/dcmitype/StillImage"/>
    <dc:title/>
   </cc:Work>
  </rdf:RDF>
 </metadata>
 <g id="layer1" transform="translate(-380.47 -363.46)">
  <g id="g3668" transform="matrix(.91528 0 0 -.91528 -105.62 454.46)">
   <g id="g3670">
    <g id="g3676">
     <g id="g3700">
      <g id="g3702" opacity=".7963">
       <g id="g3706">
        <g id="g3708">
         <g id="g3712">
          <g id="g3714">
           <g id="g3718">
            <g id="g3720">
             <path id="path3724" d="m573.56 54.113c-0.2082 12.504-1.926 16.067-15.068 18.323 0 0-1.8505-2.2416-6.1619-2.2416-4.3121 0-6.1626 2.2416-6.1626 2.2416-12.998-2.2312-14.82-5.7415-15.06-17.917-0.0196-0.99427-0.029-1.0463-0.032-0.93049 8e-4 -0.21659 2e-3 -0.61692 2e-3 -1.3139 0 0 3.1283-5.9979 21.253-5.9979 18.124 0 21.252 5.9979 21.252 5.9979 0 0.44779 8e-4 0.75928 8e-4 0.97131-3e-3 -0.07118-0.0101 0.06739-0.0233 0.86672zm-21.23 19.32c6.214 0 11.253 5.8186 11.253 12.997 0 7.1777-1.6546 12.997-11.253 12.997-9.5991 0-11.253-5.8191-11.253-12.997 0-7.1782 5.0383-12.997 11.253-12.997z"/>
            </g>
           </g>
          </g>
         </g>
        </g>
       </g>
      </g>
     </g>
    </g>
   </g>
  </g>
 </g>
</svg>
