<?xml version="1.0" encoding="UTF-8"?>
<!-- Created with Inkscape (http://www.inkscape.org/) -->
<svg id="svg6530" width="14.632mm" height="12.371mm" version="1.1" viewBox="0 0 51.847 43.835" xmlns="http://www.w3.org/2000/svg" xmlns:cc="http://creativecommons.org/ns#" xmlns:dc="http://purl.org/dc/elements/1.1/" xmlns:rdf="http://www.w3.org/1999/02/22-rdf-syntax-ns#">
 <metadata id="metadata6535">
  <rdf:RDF>
   <cc:Work rdf:about="">
    <dc:format>image/svg+xml</dc:format>
    <dc:type rdf:resource="http://purl.org/dc/dcmitype/StillImage"/>
    <dc:title/>
   </cc:Work>
  </rdf:RDF>
 </metadata>
 <g id="layer1" transform="translate(-363.11 -381.51)">
  <g id="g3726" transform="matrix(.91528 0 0 -.91528 -116.49 600.56)">
   <g id="g3728">
    <g id="g3734">
     <g id="g3758">
      <g id="g3760" opacity=".7963">
       <g id="g3764">
        <g id="g3766">
         <g id="g3770">
          <g id="g3772">
           <g id="g3776">
            <g id="g3778">
             <path id="path3782" d="m579.58 199.86h-54.535c-0.5828 0-1.0561-0.4566-1.0561-1.0188v-3.765c0-2.0122 2.1161-3.6429 4.7332-3.6429h47.18c2.6158 0 4.7332 1.6307 4.7332 3.6429v3.765c0 0.5622-0.4746 1.0188-1.0561 1.0188zm-20.688-5.2315h-13.159c-0.5814 0-1.056 0.4515-1.056 1.0188 0 0.5609 0.4746 1.0138 1.056 1.0138h13.159c0.5814 0 1.0547-0.4529 1.0547-1.0138 0-0.5673-0.4733-1.0188-1.0547-1.0188zm-28.702 7.1h44.24c1.7509 0 3.1616 1.361 3.1616 3.0464v30.486c0 2.2463-1.884 4.0652-4.2124 4.0652h-42.133c-2.3283 0-4.2124-1.8189-4.2124-4.0652v-30.486c0-1.6854 1.416-3.0464 3.1563-3.0464zm2.1175 32.51h40.011v-27.422h-40.011v27.422z"/>
            </g>
           </g>
          </g>
         </g>
        </g>
       </g>
      </g>
     </g>
    </g>
   </g>
  </g>
 </g>
</svg>
